# xmcd
#
# Track frame offsets:
#	150
#	18643
#	33235
#	53293
#	64768
#	79441
#	98736
#	131298
#	149312
#	167695
#	180255
#	203116
#	227684
#	245346
#	257728
#	272841
#	296631
#
# Disc length: 4219
#
# Revision: 3
# Processed by: cddbd v1.5.1PL0 Copyright (c) Steve Scherf et al.
# Submitted via: ExactAudioCopy v0.95a3
# Normalized: r2:DSETVAR1
#
DISCID=e5107911
DTITLE=Various Artist - Jazz Samba (Volume 2)
DYEAR=2002
DGENRE=Jazz
TTITLE0=Ella Fitzgerald - Triste
TTITLE1=Walter Wanderley - Wave
TTITLE2=Dave Pike with Clark Terry - Carnival Samba
TTITLE3=Gary McFarland with Antonio Carlos Jobim - Dreamer
TTITLE4=Charlie Byrd - Chega de Saudade (No More Blues)
TTITLE5=Sarah Vaughan - The Smiling Hour (Abre Alas)
TTITLE6=Luiz Bonfá - Subtle Samba
TTITLE7=Mark Murphy - Madalena
TTITLE8=Dom Um Romao - Escravos de Jó
TTITLE9=Flora Purim - Insensatez
TTITLE10=Milt Jackson, Joe Pass and Ray Brown - Blue Bossa
TTITLE11=Vince Guaraldie and Bola Sete - Ginza Samba
TTITLE12=Ella Fitzgerald - Somewhere in the Hills (Favela)
TTITLE13=Walter Wanderley - Summer Samba
TTITLE14=Sarah Vaughan - Roses and Roses
TTITLE15=Joe Pass - Quiet Nights of Quiet Stars
TTITLE16=Cal Tjader and Charlie Byrd - Tereza My Love
EXTD=YEAR: 2002 ID3G: 8
EXTT0=
EXTT1=
EXTT2=
EXTT3=
EXTT4=
EXTT5=
EXTT6=
EXTT7=
EXTT8=
EXTT9=
EXTT10=
EXTT11=
EXTT12=
EXTT13=
EXTT14=
EXTT15=
EXTT16=
PLAYORDER=
